<?xml version="1.0" encoding="UTF-8" standalone="no"?>
<svg width="21px" height="20px" viewBox="0 0 21 20" version="1.1" xmlns="http://www.w3.org/2000/svg" xmlns:xlink="http://www.w3.org/1999/xlink" xmlns:sketch="http://www.bohemiancoding.com/sketch/ns">
    <!-- Generator: Sketch 3.3 (11970) - http://www.bohemiancoding.com/sketch -->
    <title>Oval 293</title>
    <desc>Created with Sketch.</desc>
    <defs></defs>
    <g id="Gradient-edition" stroke="none" stroke-width="1" fill="none" fill-rule="evenodd" sketch:type="MSPage">
        <g id="Main--all" sketch:type="MSArtboardGroup" transform="translate(-1609.000000, -49.000000)" fill="#FFFFFF">
            <g id="Header" sketch:type="MSLayerGroup" transform="translate(-1.000000, 1.000000)">
                <g id="Rectangle-114-+-Oval-293-+-Поиск" transform="translate(1520.000000, 38.000000)" sketch:type="MSShapeGroup">
                    <g id="Oval-293-+-Поиск" transform="translate(17.000000, 10.000000)">
                        <path d="M88.9168525,13.5026389 C91.3230259,10.1796884 91.029253,5.50843773 88.0355339,2.51471863 C84.7160774,-0.804737854 79.3341751,-0.804737854 76.0147186,2.51471863 C72.6952621,5.83417511 72.6952621,11.2160774 76.0147186,14.5355339 C79.1803888,17.7012041 84.2218305,17.8478657 87.561305,14.9755186 L91.7781746,19.1923882 L93.1923882,17.7781746 L88.9168525,13.5026389 Z M87.2089597,12.4478946 C89.141703,9.90049488 88.9458233,6.2534351 86.6213203,3.92893219 C84.0829124,1.39052429 79.9673401,1.39052429 77.4289322,3.92893219 C74.8905243,6.46734008 74.8905243,10.5829124 77.4289322,13.1213203 C79.8130782,15.5054663 83.5885212,15.6503536 86.1417685,13.5559821 L86.1213203,13.5355339 L87.2089597,12.4478946 Z" id="Oval-293"></path>
                    </g>
                </g>
            </g>
        </g>
    </g>
</svg>