<?xml version="1.0" encoding="UTF-8" standalone="no"?>
<svg width="48px" height="48px" viewBox="0 0 48 48" version="1.1" xmlns="http://www.w3.org/2000/svg" xmlns:xlink="http://www.w3.org/1999/xlink" xmlns:sketch="http://www.bohemiancoding.com/sketch/ns">
    <!-- Generator: Sketch 3.3.2 (12043) - http://www.bohemiancoding.com/sketch -->
    <title>calendar</title>
    <desc>Created with Sketch.</desc>
    <defs></defs>
    <g id="Page-4-Copy" stroke="none" stroke-width="1" fill="none" fill-rule="evenodd" sketch:type="MSPage">
        <g id="calendar" sketch:type="MSArtboardGroup" fill="#514F4F">
            <path d="M34,14 L37,14 L37,37 L12,37 L12,14 L15,14 L15,14 L15,9 L22,9 L22,12.8571429 L22,14 L27,14 L27,9 L34,9 L34,12.8571429 L34,14 L34,14 Z M14,19 L35,19 L35,35 L14,35 L14,19 Z M17,11 L20,11 L20,17 L17,17 L17,11 Z M29,11 L32,11 L32,17 L29,17 L29,11 Z" id="Rectangle-178" sketch:type="MSShapeGroup"></path>
        </g>
    </g>
</svg>