<?xml version="1.0" encoding="UTF-8" standalone="no"?>
<svg width="56px" height="56px" viewBox="0 0 56 56" version="1.1" xmlns="http://www.w3.org/2000/svg" xmlns:xlink="http://www.w3.org/1999/xlink" xmlns:sketch="http://www.bohemiancoding.com/sketch/ns">
    <!-- Generator: Sketch 3.3.2 (12043) - http://www.bohemiancoding.com/sketch -->
    <title>twitter copy</title>
    <desc>Created with Sketch.</desc>
    <defs></defs>
    <g id="Page-4-Copy" stroke="none" stroke-width="1" fill="none" fill-rule="evenodd" sketch:type="MSPage">
        <g id="twitter-copy" sketch:type="MSArtboardGroup">
            <g id="Oval-10-+-twitter-icon" sketch:type="MSLayerGroup">
                <circle id="Oval-10" fill="#2B2F33" sketch:type="MSShapeGroup" cx="28" cy="28" r="28"></circle>
                <path d="M40,20.3674528 C39.1170097,20.7690966 38.1680194,21.0405825 37.1720194,21.1624973 C38.188466,20.5376317 38.9693398,19.5482164 39.3369126,18.3691492 C38.3854757,18.9477815 37.3317476,19.3679426 36.2101553,19.5943302 C35.3120194,18.6130385 34.0323301,18 32.6160971,18 C29.4378447,18 27.1014563,21.041359 27.819767,24.1994959 C23.727534,23.9889972 20.0993398,21.9788068 17.6708544,18.9242468 C16.3810291,21.1930805 17.0018252,24.1622823 19.1946214,25.6651017 C18.3875922,25.6389387 17.6281553,25.4117745 16.9644272,25.0334862 C16.9110097,27.3727451 18.5457476,29.5601032 20.9136505,30.0480013 C20.2206796,30.2413567 19.4616505,30.2856187 18.6901553,30.1344348 C19.3166019,32.1402647 21.1351262,33.6000167 23.289767,33.6406948 C21.2196505,35.3041956 18.6123883,36.0472129 16,35.7315246 C18.1789903,37.1640384 20.7672039,38 23.5478252,38 C32.6894951,38 37.8543301,30.0823477 37.5430291,22.9810647 C38.5051845,22.269228 39.3398835,21.3799847 40,20.3674528 L40,20.3674528 Z" id="twitter-icon" fill="#FFFFFF" sketch:type="MSShapeGroup"></path>
            </g>
        </g>
    </g>
</svg>