<?xml version="1.0" encoding="UTF-8" standalone="no"?>
<svg width="48px" height="48px" viewBox="0 0 48 48" version="1.1" xmlns="http://www.w3.org/2000/svg" xmlns:xlink="http://www.w3.org/1999/xlink" xmlns:sketch="http://www.bohemiancoding.com/sketch/ns">
    <!-- Generator: Sketch 3.3.2 (12043) - http://www.bohemiancoding.com/sketch -->
    <title>location</title>
    <desc>Created with Sketch.</desc>
    <defs></defs>
    <g id="Page-4-Copy" stroke="none" stroke-width="1" fill="none" fill-rule="evenodd" sketch:type="MSPage">
        <g id="location" sketch:type="MSArtboardGroup" stroke="#514F4F" stroke-width="2">
            <path d="M24.5,40 C24.5,40 36,27.2 36,19.2 C36,13.0144108 30.8512746,8 24.5,8 C18.1487254,8 13,13.0144108 13,19.2 C13,27.2 24.5,40 24.5,40 L24.5,40 L24.5,40 Z M24.5,24 C27.1463644,24 29.2916667,21.8931047 29.2916667,19.2941176 C29.2916667,16.6951306 27.1463644,14.5882353 24.5,14.5882353 C21.8536356,14.5882353 19.7083333,16.6951306 19.7083333,19.2941176 C19.7083333,21.8931047 21.8536356,24 24.5,24 L24.5,24 L24.5,24 Z" id="Oval-64" sketch:type="MSShapeGroup"></path>
        </g>
    </g>
</svg>