<?xml version="1.0" encoding="UTF-8" standalone="no"?>
<svg width="48px" height="48px" viewBox="0 0 48 48" version="1.1" xmlns="http://www.w3.org/2000/svg" xmlns:xlink="http://www.w3.org/1999/xlink" xmlns:sketch="http://www.bohemiancoding.com/sketch/ns">
    <!-- Generator: Sketch 3.3.2 (12043) - http://www.bohemiancoding.com/sketch -->
    <title>ruble</title>
    <desc>Created with Sketch.</desc>
    <defs></defs>
    <g id="Page-4-Copy" stroke="none" stroke-width="1" fill="none" fill-rule="evenodd" sketch:type="MSPage">
        <g id="ruble" sketch:type="MSArtboardGroup" fill="#514F4F">
            <path d="M19.3433333,36 L19.3433333,30.1685714 L30.0133333,30.1685714 L30.0133333,27.8285714 L19.3433333,27.8285714 L19.3433333,24.3742857 L26.86,24.3742857 C31.9933333,24.3742857 35,21.4771429 35,17.1314286 C35,12.8228571 31.9566667,10 26.86,10 L16.63,10 L16.63,22.0342857 L13,22.0342857 L13,24.3742857 L16.63,24.3742857 L16.63,27.8285714 L13,27.8285714 L13,30.1685714 L16.63,30.1685714 L16.63,36 L19.3433333,36 L19.3433333,36 Z M19.3433333,12.4885714 L26.64,12.4885714 C30.27,12.4885714 32.3233333,14.2714286 32.3233333,17.28 C32.3233333,20.3628571 30.27,22.0342857 26.64,22.0342857 L19.3433333,22.0342857 L19.3433333,12.4885714 L19.3433333,12.4885714 Z" id="₽" sketch:type="MSShapeGroup"></path>
        </g>
    </g>
</svg>